<?xml version="1.0" standalone="no"?>
<!DOCTYPE svg PUBLIC "-//W3C//DTD SVG 20010904//EN"
 "http://www.w3.org/TR/2001/REC-SVG-20010904/DTD/svg10.dtd">
<svg version="1.0" xmlns="http://www.w3.org/2000/svg"
 width="500.000000pt" height="500.000000pt" viewBox="0 0 500.000000 500.000000"
 preserveAspectRatio="xMidYMid meet">

<g transform="translate(0.000000,500.000000) scale(0.100000,-0.100000)"
fill="#000000" stroke="none">
<path d="M2615 4224 c-4 -26 -16 -73 -28 -104 -28 -74 -26 -147 7 -233 23 -59
26 -79 22 -160 -2 -54 -10 -111 -20 -137 -9 -25 -22 -65 -29 -90 l-12 -45 -94
0 -94 0 -1 40 c-1 22 8 72 21 110 33 104 36 143 18 205 -9 30 -21 75 -27 100
-8 36 -25 60 -89 124 -78 77 -79 78 -79 48 0 -17 -11 -66 -25 -109 -31 -98
-31 -148 0 -246 34 -106 34 -208 0 -309 -14 -40 -25 -85 -25 -100 l0 -28 -90
0 -89 0 221 -220 221 -220 591 -2 591 -3 3 -102 3 -103 254 0 c197 0 255 -3
256 -12 4 -99 -5 -289 -16 -340 -38 -184 -152 -355 -308 -461 -23 -16 -41 -33
-39 -39 1 -5 -2 -7 -7 -4 -5 3 -37 -7 -73 -23 -35 -16 -97 -37 -139 -47 -66
-15 -79 -22 -99 -51 -12 -18 -52 -60 -87 -93 l-64 -60 296 0 295 0 0 -145 0
-145 -1378 0 -1377 0 535 -535 536 -535 84 -10 c247 -28 590 4 850 79 148 43
379 133 390 151 3 5 18 12 33 15 15 4 32 15 37 24 5 9 10 13 10 9 0 -12 133
63 153 86 10 11 15 15 11 7 -7 -14 125 75 137 92 4 5 17 14 30 21 13 7 23 18
22 24 -2 6 3 9 11 6 18 -7 297 263 294 285 -2 9 3 15 9 14 16 -4 141 159 220
286 135 216 257 506 298 706 2 11 10 52 18 90 9 39 20 113 27 164 l11 95 -908
908 -908 907 -6 -47 c-4 -26 -17 -78 -29 -115 -26 -77 -24 -126 9 -225 30 -89
29 -208 -4 -309 -14 -43 -25 -88 -25 -100 0 -22 -3 -23 -101 -23 l-102 0 8 63
c4 34 8 72 8 84 1 11 5 19 9 17 11 -7 30 66 30 115 0 25 -11 84 -26 129 -35
110 -35 197 -1 299 l26 76 -99 100 -99 100 -8 -49z"/>
<path d="M3609 2270 c0 -91 -6 -202 -13 -247 -6 -46 -10 -83 -8 -83 21 0 129
76 177 124 88 90 155 232 155 330 l0 35 -155 3 -155 3 -1 -165z"/>
</g>
</svg>
